<?xml version="1.0" encoding="UTF-8" standalone="no"?>
<!DOCTYPE svg PUBLIC "-//W3C//DTD SVG 1.1//EN" "http://www.w3.org/Graphics/SVG/1.1/DTD/svg11.dtd">
<svg width="100%" height="100%" viewBox="0 0 32 32" version="1.1" xmlns="http://www.w3.org/2000/svg" xmlns:xlink="http://www.w3.org/1999/xlink" xml:space="preserve" style="fill-rule:evenodd;clip-rule:evenodd;stroke-linejoin:round;stroke-miterlimit:2;">
    <g transform="translate(0,32) scale(0.064)">
        <!-- New path data -->
        <g fill="#000000" stroke="none">
            <path d="M3135 3305 c-232 -42 -441 -235 -535 -493 -16 -46 -30 -89 -30 -97 0 -12 22 -15 128 -15 l128 0 12 103 c28 240 116 394 256 445 154 58 332 23 461 -90 50 -44 116 -144 146 -220 11 -29 25 -57 30 -63 5 -5 9 74 9 207 0 142 -4 219 -11 223 -5 4 -35 -18 -66 -49 l-56 -56 -48 30 c-58 38 -136 66 -220 79 -80 13 -115 13 -204 -4z"/>
           <path d="M1050 3271 c0 -20 5 -21 100 -21 l100 0 0 -275 0 -275 115 0 115 0 0
275 0 275 144 0 c169 0 230 -10 312 -50 138 -68 229 -225 259 -452 l6 -48 120
0 121 0 -7 33 c-32 146 -131 312 -238 398 -69 55 -172 106 -266 131 -70 20
-108 22 -478 26 l-403 4 0 -21z"/>
<path d="M1248 2574 c-5 -4 -8 -34 -8 -66 l0 -58 45 0 c73 0 108 51 68 99 -18
21 -92 39 -105 25z m80 -36 c18 -18 14 -46 -7 -58 -38 -20 -51 -13 -51 30 0
35 3 40 23 40 13 0 28 -5 35 -12z"/>
<path d="M1440 2573 c0 -5 9 -21 20 -38 11 -16 20 -42 20 -57 0 -18 5 -28 15
-28 8 0 15 9 15 20 0 11 12 39 26 61 31 49 22 66 -13 25 l-25 -30 -20 27 c-19
26 -38 36 -38 20z"/>
<path d="M1637 2573 c-4 -3 -7 -33 -7 -65 0 -45 3 -58 15 -58 11 0 15 11 15
38 l0 37 19 -28 c10 -16 22 -29 26 -29 4 0 16 13 26 29 l19 28 0 -37 c0 -28 4
-38 15 -38 13 0 15 11 13 62 -2 34 -8 63 -14 65 -5 2 -21 -15 -34 -38 l-23
-42 -25 41 c-24 42 -32 48 -45 35z"/>
<path d="M1885 2555 c-30 -29 -32 -58 -5 -85 39 -39 120 -12 120 40 0 27 -43
70 -70 70 -11 0 -32 -11 -45 -25z m73 -17 c18 -18 14 -46 -7 -58 -25 -13 -48
-4 -56 21 -12 38 35 65 63 37z"/>
<path d="M2087 2574 c-4 -4 -7 -34 -7 -66 0 -45 3 -58 15 -58 11 0 15 11 15
38 l1 37 30 -37 c46 -57 61 -51 57 24 -2 38 -8 63 -15 66 -9 2 -13 -8 -13 -34
l0 -38 -38 37 c-21 21 -41 34 -45 31z"/>
<path d="M2290 2516 l0 -66 40 0 c72 0 110 61 66 107 -6 7 -33 16 -59 19 l-47
7 0 -67z m90 15 c5 -11 10 -22 10 -25 0 -12 -33 -36 -51 -36 -16 0 -19 7 -19
40 0 36 3 40 25 40 14 0 29 -8 35 -19z"/>
<path d="M2630 2562 c-44 -35 -17 -112 39 -112 33 0 56 14 46 29 -5 9 -10 9
-20 1 -8 -7 -23 -9 -34 -5 -45 14 -30 78 17 75 43 -3 48 0 28 15 -26 20 -49
19 -76 -3z"/>
<path d="M2820 2518 c-19 -41 -26 -64 -19 -67 7 -2 16 4 21 13 11 20 64 21 72
1 3 -8 12 -15 20 -15 12 0 9 13 -13 62 -15 34 -33 64 -39 66 -7 2 -25 -24 -42
-60z m50 2 c9 -17 8 -20 -9 -20 -14 0 -18 5 -14 20 3 11 7 20 9 20 2 0 8 -9
14 -20z"/>
<path d="M3007 2573 c-4 -3 -7 -33 -7 -65 0 -45 3 -58 15 -58 11 0 15 11 15
38 l1 37 33 -37 c47 -54 56 -49 56 28 0 48 -3 65 -12 62 -7 -3 -15 -20 -18
-39 l-5 -34 -29 38 c-29 37 -37 43 -49 30z"/>
<path d="M3200 2572 c0 -25 51 -122 64 -122 14 0 43 53 61 109 12 40 -15 21
-37 -25 l-22 -45 -21 42 c-19 39 -45 63 -45 41z"/>
<path d="M3421 2518 c-16 -37 -24 -65 -18 -67 6 -2 16 4 22 13 7 9 22 16 35
16 13 0 28 -7 35 -16 6 -9 17 -15 23 -13 15 5 -42 129 -58 129 -6 0 -24 -28
-39 -62z m52 2 c4 -15 0 -20 -14 -20 -17 0 -18 3 -9 20 6 11 12 20 14 20 2 0
6 -9 9 -20z"/>
<path d="M3618 2569 c-30 -17 -22 -48 17 -65 47 -19 46 -38 -1 -29 -28 5 -35
3 -32 -7 6 -17 65 -23 84 -7 25 21 16 47 -21 59 -43 14 -46 30 -5 30 32 0 40
14 14 24 -22 8 -36 7 -56 -5z"/>
<path d="M1250 2035 l0 -265 -100 0 c-94 0 -100 -1 -100 -21 0 -20 1 -20 413
-16 355 3 420 6 472 21 187 55 323 162 417 326 27 48 78 182 78 206 0 11 -22
14 -120 14 l-120 0 0 -33 c0 -54 -37 -186 -75 -264 -56 -119 -148 -195 -267
-223 -24 -5 -116 -10 -205 -10 l-163 0 0 265 0 265 -115 0 -115 0 0 -265z"/>
<path d="M2584 2273 c13 -54 96 -209 147 -277 93 -122 243 -226 375 -261 32
-8 92 -15 134 -15 127 0 227 36 327 118 l56 45 61 -67 c34 -36 67 -66 74 -66
16 0 18 470 1 470 -5 0 -19 -21 -31 -47 -41 -95 -113 -207 -171 -270 -84 -90
-178 -135 -291 -141 -257 -14 -387 134 -431 491 l-6 47 -126 0 -125 0 6 -27z"/>
<path d="M1980 1500 c0 -37 2 -40 28 -39 23 2 24 2 5 6 -18 3 -23 11 -23 33 0
22 5 30 23 33 19 4 18 4 -5 6 -26 1 -28 -2 -28 -39z"/>
<path d="M2134 1529 c-3 -6 -1 -16 5 -22 9 -9 11 -8 6 5 -5 12 0 18 17 21 22
4 22 4 1 6 -12 0 -25 -4 -29 -10z"/>
<path d="M2283 1533 c12 -3 17 -16 19 -41 l1 -37 4 35 c3 19 10 38 16 42 7 4
-4 7 -23 7 -19 -1 -27 -3 -17 -6z"/>
<path d="M2543 1533 c23 -6 22 -22 -5 -50 l-21 -23 34 1 c25 1 28 3 11 6 -22
4 -23 6 -7 23 20 23 13 50 -12 49 -17 -1 -17 -2 0 -6z"/>
<path d="M2677 1534 c-4 -4 -7 -12 -7 -18 0 -6 4 -5 9 3 12 19 41 6 41 -19 0
-25 -28 -38 -42 -19 -8 12 -9 11 -5 -1 5 -20 37 -19 51 3 18 28 -24 74 -47 51z"/>
<path d="M2835 1533 c11 -3 24 -10 28 -17 6 -7 7 -6 4 4 -2 8 -14 16 -28 17
-19 1 -20 1 -4 -4z"/>
<path d="M2977 1533 c-3 -5 5 -8 18 -8 13 0 21 3 18 8 -2 4 -10 7 -18 7 -8 0
-16 -3 -18 -7z"/>
<path d="M2170 1493 c18 -9 11 -22 -15 -26 -23 -4 -23 -4 2 -3 28 1 40 27 15
32 -7 1 -8 0 -2 -3z"/>
<path d="M2835 1480 c-18 -20 -17 -20 11 -19 18 1 22 3 11 6 -14 4 -16 8 -6
19 18 22 4 17 -16 -6z"/>
<path d="M2977 1468 c2 -5 10 -8 18 -8 8 0 16 3 18 8 3 4 -5 7 -18 7 -13 0
-21 -3 -18 -7z"/>
        </g>
    </g>
</svg>
